<svg width="220" height="201" viewBox="0 0 220 201" fill="none" xmlns="http://www.w3.org/2000/svg">
<path d="M40.363 123.769C32.6899 123.769 25.805 121.877 19.7085 118.093C13.612 114.204 8.77686 109.001 5.20305 102.484C1.73435 95.8622 0 88.3993 0 80.0954C0 71.7916 1.89202 64.3286 5.67605 57.7065C9.5652 51.0845 14.7682 45.8814 21.2852 42.0974C27.9073 38.2082 35.3177 36.2637 43.5164 36.2637C51.7151 36.2637 59.073 38.2082 65.5899 42.0974C72.1069 45.8814 77.2574 51.0845 81.0414 57.7065C84.9306 64.3286 86.8751 71.7916 86.8751 80.0954H80.7261C80.7261 88.3993 78.9392 95.8622 75.3654 102.484C71.8967 109.001 67.1141 114.204 61.0176 118.093C54.9211 121.877 48.0362 123.769 40.363 123.769ZM43.5164 109.579C48.8771 109.579 53.6597 108.318 57.8642 105.795C62.0687 103.168 65.3797 99.6463 67.7973 95.2316C70.2149 90.7117 71.4237 85.6664 71.4237 80.0954C71.4237 74.4194 70.2149 69.374 67.7973 64.9593C65.3797 60.4395 62.0687 56.9182 57.8642 54.3955C53.6597 51.7677 48.8771 50.4538 43.5164 50.4538C38.2608 50.4538 33.4782 51.7677 29.1686 54.3955C24.9641 56.9182 21.6005 60.4395 19.0778 64.9593C16.6603 69.374 15.4515 74.4194 15.4515 80.0954C15.4515 85.6664 16.6603 90.7117 19.0778 95.2316C21.6005 99.6463 24.9641 103.168 29.1686 105.795C33.4782 108.318 38.2608 109.579 43.5164 109.579ZM78.8341 123.296C76.5216 123.296 74.577 122.561 73.0003 121.089C71.5288 119.512 70.793 117.568 70.793 115.255V91.1322L73.7887 74.4194L86.8751 80.0954V115.255C86.8751 117.568 86.0868 119.512 84.5101 121.089C83.0386 122.561 81.1465 123.296 78.8341 123.296Z" fill="#2A4CA6"/>
<path d="M123.423 123.139C118.798 123.139 114.699 121.877 111.125 119.355C107.551 116.832 104.766 113.416 102.769 109.106C100.772 104.692 99.7731 99.6463 99.7731 93.9702V7.88341C99.7731 5.57094 100.509 3.67892 101.98 2.20735C103.452 0.735785 105.344 0 107.657 0C109.969 0 111.861 0.735785 113.333 2.20735C114.804 3.67892 115.54 5.57094 115.54 7.88341V93.9702C115.54 97.8594 116.276 101.065 117.747 103.588C119.219 106.111 121.111 107.372 123.423 107.372H127.365C129.467 107.372 131.149 108.108 132.41 109.579C133.777 111.051 134.46 112.943 134.46 115.255C134.46 117.568 133.462 119.46 131.464 120.931C129.467 122.403 126.892 123.139 123.739 123.139H123.423Z" fill="#2A4CA6"/>
<path d="M173.488 123.769C165.815 123.769 158.93 121.877 152.833 118.093C146.737 114.204 141.902 109.001 138.328 102.484C134.859 95.8622 133.125 88.3993 133.125 80.0954C133.125 71.7916 135.017 64.3286 138.801 57.7065C142.69 51.0845 147.893 45.8814 154.41 42.0974C161.032 38.2082 168.443 36.2637 176.641 36.2637C184.84 36.2637 192.198 38.2082 198.715 42.0974C205.232 45.8814 210.382 51.0845 214.166 57.7065C218.055 64.3286 220 71.7916 220 80.0954H213.851C213.851 88.3993 212.064 95.8622 208.49 102.484C205.022 109.001 200.239 114.204 194.142 118.093C188.046 121.877 181.161 123.769 173.488 123.769ZM176.641 109.579C182.002 109.579 186.785 108.318 190.989 105.795C195.194 103.168 198.505 99.6463 200.922 95.2316C203.34 90.7117 204.549 85.6664 204.549 80.0954C204.549 74.4194 203.34 69.374 200.922 64.9593C198.505 60.4395 195.194 56.9182 190.989 54.3955C186.785 51.7677 182.002 50.4538 176.641 50.4538C171.386 50.4538 166.603 51.7677 162.293 54.3955C158.089 56.9182 154.725 60.4395 152.203 64.9593C149.785 69.374 148.576 74.4194 148.576 80.0954C148.576 85.6664 149.785 90.7117 152.203 95.2316C154.725 99.6463 158.089 103.168 162.293 105.795C166.603 108.318 171.386 109.579 176.641 109.579ZM211.959 123.296C209.646 123.296 207.702 122.561 206.125 121.089C204.654 119.512 203.918 117.568 203.918 115.255V91.1322L206.914 74.4194L220 80.0954V115.255C220 117.568 219.212 119.512 217.635 121.089C216.163 122.561 214.271 123.296 211.959 123.296Z" fill="#2A4CA6"/>
<path d="M46.4741 199.831C45.6069 199.831 44.8777 199.535 44.2864 198.944C43.6951 198.353 43.3995 197.624 43.3995 196.756V156.728C43.3995 155.822 43.6951 155.093 44.2864 154.541C44.8777 153.949 45.6069 153.654 46.4741 153.654H58.2992C61.2554 153.654 63.8767 154.304 66.1629 155.605C68.449 156.906 70.2228 158.719 71.4842 161.045C72.7849 163.331 73.4353 165.972 73.4353 168.967C73.4353 171.845 72.7849 174.407 71.4842 176.654C70.2228 178.9 68.449 180.654 66.1629 181.916C63.8767 183.177 61.2554 183.808 58.2992 183.808H49.5486V196.756C49.5486 197.624 49.253 198.353 48.6617 198.944C48.1099 199.535 47.3806 199.831 46.4741 199.831ZM49.5486 178.132H58.2992C60.1123 178.132 61.7087 177.738 63.0883 176.949C64.4679 176.161 65.5519 175.077 66.3402 173.697C67.1286 172.318 67.5227 170.741 67.5227 168.967C67.5227 167.075 67.1286 165.42 66.3402 164.001C65.5519 162.542 64.4679 161.399 63.0883 160.572C61.7087 159.744 60.1123 159.33 58.2992 159.33H49.5486V178.132Z" fill="#2A4CA6"/>
<path d="M107.494 200.422C104.026 200.422 100.853 199.851 97.9752 198.707C95.0977 197.525 92.6145 195.889 90.5254 193.8C88.4757 191.672 86.8793 189.169 85.7362 186.291C84.5931 183.374 84.0215 180.181 84.0215 176.713C84.0215 173.244 84.5931 170.071 85.7362 167.194C86.8793 164.316 88.4757 161.833 90.5254 159.744C92.6145 157.615 95.0977 155.979 97.9752 154.836C100.853 153.654 104.026 153.063 107.494 153.063C110.963 153.063 114.116 153.654 116.954 154.836C119.832 155.979 122.315 157.615 124.404 159.744C126.493 161.833 128.109 164.316 129.253 167.194C130.396 170.071 130.967 173.244 130.967 176.713C130.967 180.181 130.396 183.374 129.253 186.291C128.109 189.169 126.493 191.672 124.404 193.8C122.315 195.889 119.832 197.525 116.954 198.707C114.116 199.851 110.963 200.422 107.494 200.422ZM107.494 194.864C110.056 194.864 112.402 194.411 114.53 193.504C116.698 192.558 118.571 191.277 120.147 189.661C121.724 188.006 122.926 186.074 123.754 183.867C124.621 181.66 125.055 179.275 125.055 176.713C125.055 174.151 124.621 171.766 123.754 169.559C122.926 167.351 121.724 165.44 120.147 163.823C118.571 162.168 116.698 160.887 114.53 159.98C112.402 159.074 110.056 158.62 107.494 158.62C104.932 158.62 102.567 159.074 100.399 159.98C98.2708 160.887 96.4182 162.168 94.8415 163.823C93.3043 165.44 92.102 167.351 91.2349 169.559C90.3677 171.766 89.9341 174.151 89.9341 176.713C89.9341 179.275 90.3677 181.66 91.2349 183.867C92.102 186.074 93.3043 188.006 94.8415 189.661C96.4182 191.277 98.2708 192.558 100.399 193.504C102.567 194.411 104.932 194.864 107.494 194.864Z" fill="#2A4CA6"/>
<path d="M161.174 200.422C158.652 200.422 156.247 200.028 153.961 199.24C151.675 198.451 149.684 197.348 147.989 195.929C146.294 194.51 145.053 192.874 144.264 191.021C143.87 190.193 143.87 189.425 144.264 188.715C144.698 188.006 145.408 187.552 146.393 187.355C147.102 187.198 147.792 187.316 148.462 187.71C149.172 188.065 149.704 188.617 150.059 189.366C150.532 190.351 151.3 191.258 152.365 192.085C153.468 192.913 154.789 193.583 156.326 194.096C157.863 194.608 159.479 194.864 161.174 194.864C163.066 194.864 164.801 194.569 166.377 193.977C167.994 193.386 169.294 192.539 170.28 191.435C171.265 190.292 171.758 188.893 171.758 187.237C171.758 185.148 170.93 183.276 169.275 181.62C167.658 179.965 164.978 178.94 161.233 178.546C156.346 178.073 152.503 176.634 149.704 174.23C146.905 171.825 145.506 168.849 145.506 165.302C145.506 162.7 146.235 160.493 147.694 158.679C149.152 156.866 151.123 155.487 153.606 154.541C156.129 153.595 158.928 153.122 162.002 153.122C164.407 153.122 166.496 153.457 168.269 154.127C170.083 154.797 171.659 155.723 172.999 156.906C174.34 158.088 175.502 159.488 176.488 161.104C177.04 161.971 177.257 162.799 177.138 163.587C177.059 164.336 176.685 164.927 176.015 165.361C175.266 165.834 174.458 165.932 173.591 165.656C172.724 165.38 172.073 164.868 171.64 164.119C171.009 162.976 170.24 162.01 169.334 161.222C168.427 160.434 167.363 159.823 166.141 159.389C164.919 158.916 163.48 158.679 161.825 158.679C158.908 158.64 156.464 159.192 154.493 160.335C152.522 161.439 151.537 163.153 151.537 165.479C151.537 166.661 151.833 167.805 152.424 168.908C153.054 169.972 154.178 170.899 155.794 171.687C157.449 172.475 159.814 173.027 162.889 173.343C167.58 173.816 171.226 175.254 173.827 177.659C176.468 180.024 177.789 183.157 177.789 187.06C177.789 189.307 177.316 191.258 176.37 192.913C175.463 194.569 174.221 195.968 172.645 197.111C171.107 198.215 169.334 199.043 167.323 199.594C165.353 200.146 163.303 200.422 161.174 200.422Z" fill="#2A4CA6"/>
</svg>
